<svg xmlns="http://www.w3.org/2000/svg" width="64" height="64"><style>.st0{display:none}.st1,.st2,.st3{display:inline;fill:#ffba0d}.st2,.st3{fill:none;stroke:#ff5050;stroke-width:2.8346;stroke-miterlimit:10}.st3{stroke-width:2.126}.st4,.st5,.st6{display:inline;fill:#ff5050}.st5,.st6{fill:none;stroke-miterlimit:10}.st5{stroke-linecap:round;stroke:#ff5050;stroke-width:1.4173}.st6{stroke:#8fd83a;stroke-width:2.8346}.st7,.st9{display:inline;fill:#8fd83a}.st9{fill:#c1974c}.st10{fill:none;stroke:#c1974c;stroke-width:2.126;stroke-linecap:round;stroke-miterlimit:10}.st10,.st11,.st12{display:inline}.st11{stroke:#ff8dbe;stroke-width:2.8346;stroke-miterlimit:10;fill:none}.st12{fill:#ff8dbe}.st14{fill:none;stroke:#49d6d6;stroke-width:2.8346;stroke-miterlimit:10}.st14,.st16,.st18{display:inline}.st16{stroke:orange;stroke-width:2.8346;stroke-miterlimit:10;fill:none}.st18{fill:orange}.st20,.st22,.st24{display:inline;fill:#b2b2b2}.st22,.st24{fill:#c92dac}.st24{fill:#ff3e8d}.st26{fill:#8fd83a}</style><g id="主食" class="st0"><path class="st1" d="M53.407 63.522H10.593C5.015 63.522.477 58.985.477 53.407V10.593C.477 5.015 5.015.477 10.593.477h42.814c5.578 0 10.115 4.538 10.115 10.116v42.814c0 5.578-4.537 10.115-10.115 10.115zM10.593 3.312c-4.015 0-7.281 3.266-7.281 7.281v42.814c0 4.015 3.266 7.281 7.281 7.281h42.814c4.015 0 7.281-3.267 7.281-7.281V10.593c0-4.015-3.267-7.281-7.281-7.281H10.593z"/><path class="st1" d="M56.021 32.051c0 12.217-10.754 22.12-24.021 22.12S7.979 44.268 7.979 32.051c0-3.037 48.042-3.07 48.042 0z"/><path class="st1" d="M38.749 56.23H25.251a1.348 1.348 0 01-1.344-1.344V50.75c0-.739.605-1.344 1.344-1.344H38.75c.739 0 1.344.605 1.344 1.344v4.137a1.349 1.349 0 01-1.345 1.343zM10.355 36.776c.445-.615.869-1.229 1.316-1.906-1.618-.866-2.68-2.788-2.624-5.03.017-1.792.573-3.278 1.545-4.164.24-1.841 1.161-3.269 2.479-3.893.27-2.487 1.836-4.439 3.883-4.91.712-2.144 2.541-3.72 4.643-3.956.658-2.332 2.838-4.016 5.404-4.044.134-.003.273.001.412.011.907-1.329 2.558-2.127 4.502-2.131l.07.001.056-.001c1.944.004 3.59.801 4.494 2.129.14-.01.279-.015.417-.012 2.562.027 4.739 1.709 5.396 4.041 2.106.235 3.941 1.811 4.654 3.956 2.077.473 3.661 2.453 3.913 4.919 1.325.626 2.248 2.055 2.487 3.896.983.889 1.542 2.382 1.55 4.192.015 1.806-.68 3.432-1.837 4.432a47.14 47.14 0 001.726 2.454l-44.486.016zm2.95-.451h38.559a60.627 60.627 0 01-1.162-1.765l-.642-1.014 1.108-.506c.97-.444 1.614-1.711 1.603-3.153-.007-1.29-.405-2.377-1.016-2.774l-.45-.293-.033-.526c-.091-1.443-.746-2.529-1.629-2.702l-.877-.171.004-.974c-.032-1.923-1.133-3.438-2.549-3.555h-.114l-.882-.02-.165-.844c-.331-1.692-1.656-2.962-3.151-3.021-.082.001-.163.01-.243.019l-1.26.127-.062-1.167.001-.01c-.231-1.916-1.925-2.965-3.42-2.98a3.247 3.247 0 00-.753.084l-.904.194-.345-.836c-.401-.974-1.479-1.557-2.882-1.56l-.198-.003c-1.329.005-2.41.59-2.816 1.566l-.346.833-.901-.193a3.227 3.227 0 00-.747-.083c-1.501.016-3.198 1.067-3.429 2.984l-.005.088-.088 1.086-1.225-.124c-.081-.009-.162-.02-.245-.019-1.489.059-2.81 1.329-3.141 3.02l-.165.844-.973.022-.023-.003c-1.428.119-2.534 1.676-2.531 3.59l.021.89-.892.214c-.872.171-1.52 1.254-1.613 2.695l-.034.523-.448.292c-.603.395-1.001 1.482-1.013 2.771-.043 1.764.929 3.229 2.214 3.352l1.74.166-.916 1.448a59.734 59.734 0 01-.962 1.488z"/></g><g id="主菜" class="st0"><path id="フレーム_1_" class="st2" d="M53.407 62.106H10.593c-4.784 0-8.699-3.914-8.699-8.699V10.593c0-4.784 3.914-8.699 8.699-8.699h42.814c4.784 0 8.699 3.914 8.699 8.699v42.814c0 4.784-3.915 8.699-8.699 8.699z"/><path class="st3" d="M50.451 54.029c-5.39 1.372-7.937.6-13.728 1.089-3.826.323-3.495.726-11.626 1.76-5.626.715-7.276.712-8.903-.225-3.247-1.871-4.033-6.099-4.258-7.842-.25-2.238-.162-5.176 1.686-7.337 1.654-1.934 3.551-1.881 7.776-3.347 6.469-2.244 6.647-3.973 11.858-5.671 2.434-.793 6.139-1.636 11.127-1.407 1.024.029 4.569.25 7.696 2.916 1.91 1.628 2.693 3.502 3.755 5.988.97 2.271 1.764 4.131 1.49 6.621-.091.826-.355 2.963-1.947 4.769-1.477 1.677-3.352 2.286-4.926 2.686z"/><path class="st4" d="M19.486 52.638c-.251-.002-2.928-.071-4.458-2.27-1.181-1.697-.876-3.507-.802-3.89.064-.655.33-2.459 1.813-4.028a6.961 6.961 0 012.434-1.653 6.847 6.847 0 011.276-.09c1.533.036 2.56.584 5.9 2.759 0 0 3.416 2.224 4.854 4.308.039.056.385.558.312 1.027a1.48 1.48 0 01-.397.78c-.391.261-.924.595-1.578.945a18.885 18.885 0 01-4.124 1.622c-1.584.413-3.173.509-5.23.49zM53.416 46.184c-.927 1.256-3.281 1.582-7.953 2.183-1.26.162-2.323.265-3.094.33a84.86 84.86 0 00-6.781.65c-1.171.168-1.671-.104-1.912-.356-.26-.271-.609-.926 2.008-7.169.514-1.226.967-2.252 1.801-3.463.992-1.44 1.838-2.148 2.079-2.343.369-.3.341-.19 2.026-1.27.475-.305.775-.502 1.258-.751.466-.24.895-.458 1.496-.62.295-.08.863-.229 1.569-.207.8.026 1.371.259 2.006.526a10.333 10.333 0 012.615 1.596c.44.367 1.267 1.069 1.992 2.215.946 1.494 1.163 2.88 1.29 3.653.296 1.805.602 3.668-.4 5.026zM24.53 41.257c-.022-.179-.019-.581 1.197-1.83a16.64 16.64 0 012.691-2.234c.622-.478 2.61-1.875 5.189-1.61.688.07 1.282.245 1.768.442.319.131.762.373.945.815.388.94-.943 1.479-1.725 3.69 0 0-1.063 3.009-1.698 3.616a.065.065 0 01-.009.008c-.069.065-.415.382-.851.529-.142.048-.296.082-.296.082-.246.054-.44.063-.558.062a7.667 7.667 0 01-.628-.114c-1.273-.284-2.04-.79-3.242-1.514-2.349-1.415-2.725-1.475-2.783-1.942z"/><path class="st3" d="M49.486 12.167c-.867-.71-3.288-2.577-7.299-3.936-.911-.308-4.705-1.54-9.146-1.452-9.66.192-16.663 6.516-18.347 8.117a10.322 10.322 0 00-2.333-2.784c-1.092-.91-2.527-2.104-3.706-1.607-1.096.462-1.332 2.114-1.377 2.483a6.247 6.247 0 00.036 1.831 6.32 6.32 0 001.085 2.602c-.326.348-1.907 2.106-1.623 4.433a4.81 4.81 0 00.515 1.638c.25.272.789.772 1.544.838.747.065 1.304-.331 2.221-.983.18-.128.89-.642 2.065-1.91a26.13 26.13 0 001.43-1.68 30.589 30.589 0 007.65 4.509c5.182 2.111 9.638 2.262 11.473 2.253 4.29-.021 7.407-.975 9.71-1.68 3.287-1.006 4.9-1.98 5.859-2.645 1.911-1.325 4.03-2.795 4.105-4.863.067-1.946-1.715-3.405-3.862-5.164z"/><circle class="st4" cx="43.723" cy="15.751" r=".906"/></g><g id="主菜のコピー" class="st0"><path id="フレーム_6_" class="st2" d="M53.407 62.106H10.593c-4.784 0-8.699-3.914-8.699-8.699V10.593c0-4.784 3.914-8.699 8.699-8.699h42.814c4.784 0 8.699 3.914 8.699 8.699v42.814c0 4.784-3.915 8.699-8.699 8.699z"/><path class="st3" d="M50.754 53.68c-5.39 1.372-7.937.6-13.728 1.089-3.826.323-3.495.726-11.626 1.76-5.626.715-7.276.712-8.903-.225-3.247-1.871-4.033-6.099-4.258-7.842-.25-2.238-.162-5.176 1.686-7.337 1.654-1.934 3.551-1.881 7.776-3.347 6.469-2.244 6.647-3.973 11.858-5.671 2.434-.793 6.139-1.636 11.127-1.407 1.024.029 4.569.25 7.696 2.916 1.91 1.628 2.693 3.502 3.755 5.988.97 2.271 1.764 4.131 1.49 6.621-.091.826-.355 2.963-1.947 4.769-1.477 1.676-3.352 2.285-4.926 2.686z"/><path class="st4" d="M19.79 52.288c-.251-.002-2.928-.071-4.458-2.27-1.181-1.697-.876-3.507-.802-3.89.064-.655.33-2.459 1.813-4.028a6.961 6.961 0 012.434-1.653 6.847 6.847 0 011.276-.09c1.533.036 2.56.584 5.9 2.759 0 0 3.416 2.224 4.854 4.308.039.056.385.558.312 1.027a1.48 1.48 0 01-.397.78c-.391.261-.924.595-1.578.945a18.885 18.885 0 01-4.124 1.622c-1.585.413-3.174.509-5.23.49zM53.719 45.834c-.927 1.256-3.281 1.582-7.953 2.183-1.26.162-2.323.265-3.094.33a84.86 84.86 0 00-6.781.65c-1.171.168-1.671-.104-1.912-.356-.26-.271-.609-.926 2.008-7.169.514-1.226.967-2.252 1.801-3.463.992-1.44 1.838-2.148 2.079-2.343.369-.3.341-.19 2.026-1.27.475-.305.775-.502 1.258-.751.466-.24.895-.458 1.496-.62.295-.08.863-.229 1.569-.207.8.026 1.371.259 2.006.526a10.333 10.333 0 012.615 1.596c.44.367 1.267 1.069 1.992 2.215.946 1.494 1.163 2.88 1.29 3.653.296 1.805.602 3.668-.4 5.026zM24.833 40.907c-.022-.179-.019-.581 1.197-1.83a16.64 16.64 0 012.691-2.234c.622-.478 2.61-1.875 5.189-1.61.688.07 1.282.245 1.768.442.319.131.762.373.945.815.388.94-.943 1.479-1.725 3.69 0 0-1.063 3.009-1.698 3.616a.065.065 0 01-.009.008c-.069.065-.415.382-.851.529-.142.048-.296.082-.296.082-.246.054-.44.063-.558.062a7.667 7.667 0 01-.628-.114c-1.273-.284-2.04-.79-3.242-1.514-2.348-1.415-2.725-1.475-2.783-1.942zM6.144 18.561a9.981 9.981 0 00.71-1.136c.461-.866.484-1.233.858-1.885.295-.514.576-.801 1.096-1.35 1.632-1.722 2.026-2.228 2.391-2.583 2.512-2.444 8.389-3.432 8.389-3.432 9.23-1.552 16.159-.463 16.159-.463 7.165 1.137 19.911 2.574 21.727 8.951.238.837.42 2.792-.308 3.161-.718.364-1.927-1.021-3.278-2.123-3.299-2.692-6.97-3.308-10.574-3.912-2.405-.403-4.668-.281-9.196-.086-5.212.224-8.606.832-9.766 1.053-3.561.676-5.447 1.034-7.873 2.267-1.296.659-3.622 1.856-5.802 4.236-2.382 2.599-2.614 4.447-3.506 4.325-1.614-.222-1.502-6.361-1.027-7.023z"/><path class="st3" d="M18.004 29.155c2.88-.002 6.176-.005 10.023-1.412 3.976-1.454 4.089-2.78 9.762-5.249 2.835-1.233 4.252-1.85 5.63-1.931 5.651-.33 8.081 4.604 11.134 3.448 2.37-.898 3.619-4.899 2.839-7.692-1.192-4.268-16.593-8.144-18.219-8.412-4.445-.734-8.541-.664-9.715-.639-7.724.163-14.196.3-18.734 4.774-2.748 2.709-3.648 5.879-3.946 7.006-.51 1.93-1.247 4.715.244 6.782.79 1.096 1.872 1.526 3.39 2.106 1.98.757 4.252 1.221 7.592 1.219z"/><path class="st5" d="M13.829 25.042a15.773 15.773 0 015.014-6.077 15.713 15.713 0 016.36-2.716M22.976 23.941a13.96 13.96 0 014.686-5.732c2.386-1.687 4.767-2.24 6.103-2.447M33.059 21.051c.51-.891 1.69-2.67 3.91-4.013a11.18 11.18 0 014.667-1.552"/></g><g id="副菜" class="st0"><path id="フレーム_2_" class="st6" d="M53.407 62.106H10.593c-4.784 0-8.699-3.914-8.699-8.699V10.593c0-4.784 3.914-8.699 8.699-8.699h42.814c4.784 0 8.699 3.914 8.699 8.699v42.814c0 4.784-3.915 8.699-8.699 8.699z"/><path class="st6" d="M50.506 43.637H25.919c-3.004 0-5.463-2.458-5.463-5.463v-7.921c0-3.004 2.458-5.463 5.463-5.463h24.586c3.004 0 5.463 2.458 5.463 5.463v7.921c0 3.005-2.458 5.463-5.462 5.463z"/><path class="st7" d="M50.544 40.257a1.22 1.22 0 100-2.44H29.317v-6.792h14.488v2.532h-4.984a1.22 1.22 0 100 2.44h7.425v-1.462-5.95H26.877v11.673h23.667zM13.524 39.751c0-3.118 2.24-5.71 5.197-6.264a7.125 7.125 0 00-6.446-2.862 7.136 7.136 0 101.427 14.201 7.16 7.16 0 001.829-.439 6.355 6.355 0 01-2.007-4.636z"/><circle class="st7" cx="20.952" cy="39.931" r="6.377"/><path class="st7" d="M57.407 49.148H7.151a1.135 1.135 0 01-1.132-1.132c0-.622.509-1.132 1.132-1.132h50.256c.622 0 1.132.509 1.132 1.132a1.137 1.137 0 01-1.132 1.132z"/></g><g id="汁物" class="st0"><path id="フレーム_3_" d="M53.407 62.106H10.593c-4.784 0-8.699-3.914-8.699-8.699V10.593c0-4.784 3.914-8.699 8.699-8.699h42.814c4.784 0 8.699 3.914 8.699 8.699v42.814c0 4.784-3.915 8.699-8.699 8.699z" display="inline" fill="none" stroke="#c1974c" stroke-width="2.835" stroke-miterlimit="10"/><path class="st9" d="M38.749 56.23H25.251a1.348 1.348 0 01-1.344-1.344V50.75c0-.739.605-1.344 1.344-1.344H38.75c.739 0 1.344.605 1.344 1.344v4.137a1.349 1.349 0 01-1.345 1.343z"/><path class="st9" d="M49.887 25.191c-1.343-.772-7.23-4.002-17.329-4.097-8.431-.079-13.827 2.09-15.107 2.627-8.201 3.44-9.456 7.899-9.474 8.173a4.622 4.622 0 00.018.742C8.333 44.582 18.947 54.172 32 54.172c13.205 0 23.918-9.814 24.016-21.953.005-.102.005-.167.005-.167-.043-3.293-4.141-5.716-6.134-6.861zm-17.886 12.6c-8.34-.006-20.924-2.015-21.283-5.836-.348-3.701 10.779-9.057 21.354-9.09 10.617-.033 21.816 5.296 21.483 9.007-.344 3.837-13.015 5.925-21.554 5.919z"/><path class="st9" d="M32.419 26.022c-9.148.023-18.774 3.719-18.473 6.273.311 2.636 11.196 4.023 18.412 4.027 7.387.004 18.348-1.437 18.646-4.084.288-2.562-9.4-6.239-18.585-6.216zm-5.686 6.82l-1.43.571c-.365.146-.794-.01-.952-.348l-.619-1.319c-.158-.337.011-.732.377-.878l1.43-.571c.365-.146.794.01.952.348l.619 1.319c.158.336-.011.732-.377.878zm5.032 1.558l-1.556.077c-.398.02-.74-.265-.762-.631l-.083-1.436c-.021-.367.287-.683.684-.703l1.556-.076c.398-.02.74.265.762.631l.083 1.436c.022.366-.286.682-.684.702zm3.63-3.65l-1.43.571c-.365.146-.794-.01-.952-.348l-.619-1.319c-.158-.337.011-.732.377-.878l1.43-.571c.365-.146.794.01.952.348l.619 1.319c.158.337-.012.732-.377.878zm5.238 1.872l-.956 1.136a.768.768 0 01-1.016.118l-1.231-.882a.635.635 0 01-.128-.937l.956-1.136a.768.768 0 011.016-.118l1.231.882a.634.634 0 01.128.937z"/><path class="st10" d="M24.578 10.687c-1.178 1.148-1.387 2.037-1.336 2.657.085 1.042.912 1.435 1.208 2.632.276 1.114-.093 2.179-.48 2.943M33.005 9.817c-1.178 1.148-1.387 2.037-1.336 2.657.085 1.042.912 1.435 1.208 2.632.276 1.114-.093 2.179-.48 2.943M41.456 10.687c-1.178 1.148-1.387 2.037-1.336 2.657.085 1.042.912 1.435 1.208 2.632.276 1.114-.093 2.179-.48 2.943"/></g><g id="デザート" class="st0"><path id="フレーム_4_" class="st11" d="M53.407 62.106H10.593c-4.784 0-8.699-3.914-8.699-8.699V10.593c0-4.784 3.914-8.699 8.699-8.699h42.814c4.784 0 8.699 3.914 8.699 8.699v42.814c0 4.784-3.915 8.699-8.699 8.699z"/><path class="st11" d="M47.927 30.476c-2.357-.414-4.727.157-6.273 1.344a5.28 5.28 0 00-1.724-1.524c-1.508-.836-2.998-.724-3.425-.686-2.917.258-4.496 2.62-4.68 2.905-.847-1.686-2.612-2.829-4.618-2.989-3.129-.249-4.976 2.043-5.06 2.152-1.547-1.088-3.815-1.598-6.075-1.202-3.473.61-5.598 3.122-4.747 5.612l8.578 19.881h23.23l9.542-19.881c.85-2.489-1.275-5.002-4.748-5.612zM22.147 31.678l3.29 24.291M31.825 32.515l-.233 23.454M41.654 31.82l-4.53 24.662"/><circle class="st12" cx="20.995" cy="20.072" r="1.256"/><circle class="st12" cx="26.361" cy="15.216" r="1.256"/><circle class="st12" cx="29.032" cy="20.072" r="1.256"/><path class="st11" d="M12.764 31.82C11.708 19.261 21.991 9.173 32.755 9.741c9.84.519 18.54 9.864 17.945 21.298"/><path class="st12" d="M39.164 45.354c-1.193 5.114-1.562 9.405-3.09 9.612-.125.017-.152-.008-1.184-.014-1.931-.011-2.129.121-2.332.015-1.685-.884-1.027-3.821-.952-11.626.091-9.442.75-11.871 2.448-12.708 1.303-.643 3.088-.284 3.957-.108 1.223.247 3.409.554 4.021 1.955.441 1.009-.117 2.136-.392 2.729-.219.471-.971 3.696-2.476 10.145z"/><path fill="none" stroke="#ff8dbe" stroke-width="2.835" stroke-linecap="round" stroke-miterlimit="10" d="M51.821 10.711l-4.824 6.497"/></g><g id="レイヤー_7" class="st0"><path id="フレーム_5_" class="st14" d="M53.407 62.106H10.593c-4.784 0-8.699-3.914-8.699-8.699V10.593c0-4.784 3.914-8.699 8.699-8.699h42.814c4.784 0 8.699 3.914 8.699 8.699v42.814c0 4.784-3.915 8.699-8.699 8.699z"/><path class="st14" d="M43.79 56.617H20.812l-6.063-46.029H49.83z"/><path fill="#49d6d6" d="M41.321 54.055l-18.055-.018-3.975-30.127 25.997-.002z"/></g><g id="時間" class="st0"><path id="フレーム_7_" class="st16" d="M53.407 62.106H10.593c-4.784 0-8.699-3.914-8.699-8.699V10.593c0-4.784 3.914-8.699 8.699-8.699h42.814c4.784 0 8.699 3.914 8.699 8.699v42.814c0 4.784-3.915 8.699-8.699 8.699z"/><circle cx="32" cy="32" r="23.293" fill="none" stroke="orange" stroke-width="4.252" stroke-miterlimit="10"/><path class="st18" d="M30.945 9.568h2.11v3.274c0 .395-.32.716-.716.716h-.679a.716.716 0 01-.716-.716V9.568zM42.649 29.92h-8.57V19.039c0-.822-.666-1.488-1.488-1.488h-1.184c-.822 0-1.488.666-1.488 1.488v14.642l.333.399h12.396c.822 0 1.488-.666 1.488-1.488v-1.184a1.486 1.486 0 00-1.487-1.488zM33.055 54.937h-2.11v-3.274c0-.395.32-.716.716-.716h.679c.395 0 .716.32.716.716v3.274zM9.183 33.055v-2.11h3.274c.395 0 .716.32.716.716v.679c0 .395-.32.716-.716.716H9.183zM54.857 30.945v2.11h-3.274a.716.716 0 01-.716-.716v-.679c0-.395.32-.716.716-.716h3.274z"/></g><g id="スプーン" class="st0"><path id="フレーム_8_" d="M53.407 62.106H10.593c-4.784 0-8.699-3.914-8.699-8.699V10.593c0-4.784 3.914-8.699 8.699-8.699h42.814c4.784 0 8.699 3.914 8.699 8.699v42.814c0 4.784-3.915 8.699-8.699 8.699z" display="inline" fill="none" stroke="#adadad" stroke-width="2.835" stroke-miterlimit="10"/><ellipse class="st20" cx="32" cy="16.253" rx="6.987" ry="10.721"/><path class="st20" d="M35.119 55.85c-.276 1.545-1.645 2.659-3.182 2.617-1.475-.04-2.746-1.136-3.01-2.617a280.457 280.457 0 00.905-36.408h4.334c-.209 3.44-.342 7.006-.378 10.69a210.377 210.377 0 001.331 25.718z"/></g><g id="スプーンのコピー" class="st0"><path id="フレーム_9_" d="M53.407 62.106H10.593c-4.784 0-8.699-3.914-8.699-8.699V10.593c0-4.784 3.914-8.699 8.699-8.699h42.814c4.784 0 8.699 3.914 8.699 8.699v42.814c0 4.784-3.915 8.699-8.699 8.699z" display="inline" fill="none" stroke="#c92dac" stroke-width="2.835" stroke-miterlimit="10"/><ellipse class="st22" cx="32" cy="16.253" rx="6.987" ry="10.721"/><path class="st22" d="M35.119 55.85c-.276 1.545-1.645 2.659-3.182 2.617-1.475-.04-2.746-1.136-3.01-2.617a280.457 280.457 0 00.905-36.408h4.334c-.209 3.44-.342 7.006-.378 10.69a210.377 210.377 0 001.331 25.718z"/></g><g id="スプーンのコピー_2" class="st0"><path id="フレーム_10_" d="M53.407 62.106H10.593c-4.784 0-8.699-3.914-8.699-8.699V10.593c0-4.784 3.914-8.699 8.699-8.699h42.814c4.784 0 8.699 3.914 8.699 8.699v42.814c0 4.784-3.915 8.699-8.699 8.699z" display="inline" fill="none" stroke="#ff3e8d" stroke-width="2.835" stroke-miterlimit="10"/><ellipse class="st24" cx="32" cy="16.253" rx="6.987" ry="10.721"/><path class="st24" d="M35.119 55.85c-.276 1.545-1.645 2.659-3.182 2.617-1.475-.04-2.746-1.136-3.01-2.617a280.457 280.457 0 00.905-36.408h4.334c-.209 3.44-.342 7.006-.378 10.69a210.377 210.377 0 001.331 25.718z"/></g><g id="スプーンのコピー_3" class="st0"><path id="フレーム_11_" class="st16" d="M53.407 62.106H10.593c-4.784 0-8.699-3.914-8.699-8.699V10.593c0-4.784 3.914-8.699 8.699-8.699h42.814c4.784 0 8.699 3.914 8.699 8.699v42.814c0 4.784-3.915 8.699-8.699 8.699z"/><ellipse class="st18" cx="32" cy="16.253" rx="6.987" ry="10.721"/><path class="st18" d="M35.119 55.85c-.276 1.545-1.645 2.659-3.182 2.617-1.475-.04-2.746-1.136-3.01-2.617a280.457 280.457 0 00.905-36.408h4.334c-.209 3.44-.342 7.006-.378 10.69a210.377 210.377 0 001.331 25.718z"/></g><g id="スプーンのコピー_4"><path id="フレーム_12_" d="M53.407 62.106H10.593c-4.784 0-8.699-3.914-8.699-8.699V10.593c0-4.784 3.914-8.699 8.699-8.699h42.814c4.784 0 8.699 3.914 8.699 8.699v42.814c0 4.784-3.915 8.699-8.699 8.699z" fill="none" stroke="#8fd83a" stroke-width="2.835" stroke-miterlimit="10"/><ellipse class="st26" cx="32" cy="16.253" rx="6.987" ry="10.721"/><path class="st26" d="M35.119 55.85c-.276 1.545-1.645 2.659-3.182 2.617-1.475-.04-2.746-1.136-3.01-2.617a280.457 280.457 0 00.905-36.408h4.334c-.209 3.44-.342 7.006-.378 10.69a210.377 210.377 0 001.331 25.718z"/></g></svg>