<?xml version="1.0" encoding="utf-8"?>
<!-- Generator: Adobe Illustrator 25.4.1, SVG Export Plug-In . SVG Version: 6.00 Build 0)  -->
<svg version="1.1" xmlns="http://www.w3.org/2000/svg" xmlns:xlink="http://www.w3.org/1999/xlink" x="0px" y="0px"
	 width="73.109px" height="70px" viewBox="0 0 73.109 70" style="enable-background:new 0 0 73.109 70;" xml:space="preserve">
<style type="text/css">
	.st0{display:none;}
	.st1{display:inline;fill:#494D67;}
	.st2{display:inline;fill:#E95055;}
	.st3{display:inline;fill:#D04347;}
	.st4{display:inline;}
	.st5{fill:#494D67;}
	.st6{fill:#E95055;}
	.st7{fill:#D04347;}
	.st8{display:inline;fill:#FDF7E0;}
	.st9{fill:#68A76F;}
	.st10{fill:#56885A;}
	.st11{fill:#626363;}
	.st12{fill:#FDF7E0;}
	.st13{display:inline;fill:#E7D2AA;}
	.st14{font-family:'MVBoli';}
	.st15{font-size:9.2071px;}
	.st16{display:inline;fill:none;stroke:#E7D2AA;stroke-width:0.7087;stroke-linecap:round;stroke-miterlimit:10;}
	.st17{fill:#E0E0E0;}
	.st18{fill:none;stroke:#C2C1C1;stroke-width:0.7087;stroke-linecap:round;stroke-miterlimit:10;}
	.st19{fill:#FABF00;}
	.st20{fill:#EF9B13;}
	.st21{fill:#F6E868;}
	.st22{fill:#FFF1BE;}
	.st23{fill:none;stroke:#FCF0D2;stroke-width:2.8346;stroke-linecap:round;stroke-miterlimit:10;}
	.st24{display:inline;fill:none;stroke:#EF9B13;stroke-width:2.126;stroke-linecap:round;stroke-miterlimit:10;}
</style>
<g id="レイヤー_1" class="st0">
	<path class="st1" d="M9.846,38.621v1.73c0,0.719-0.669,1.301-1.494,1.301h-3.73c-1.115,0-2.018-0.787-2.018-1.758
		c0.038-0.754,0.076-1.508,0.114-2.262c0.004-0.082,0.05-0.823,0.656-1.143c0.66-0.348,1.779-0.093,2.384,0.782
		C5.837,37.349,6.275,37.755,7,37.783c0.775,0.03,1.273-0.395,1.351-0.464C8.451,37.32,8.98,37.328,9.846,38.621z"/>
	<path class="st1" d="M61.841,38.621v1.73c0,0.719,0.669,1.301,1.494,1.301h3.73c1.115,0,2.018-0.787,2.018-1.758
		c-0.038-0.754-0.076-1.508-0.114-2.262c-0.004-0.082-0.05-0.823-0.656-1.143c-0.66-0.348-1.779-0.093-2.384,0.782
		c-0.081,0.078-0.519,0.483-1.244,0.511c-0.775,0.03-1.273-0.395-1.351-0.464C63.236,37.32,62.706,37.328,61.841,38.621z"/>
	<path class="st2" d="M59.847,67.362H12.04c-2.128,0-3.853-1.725-3.853-3.853V36.054h55.514v27.454
		C63.701,65.636,61.976,67.362,59.847,67.362z"/>
	<path class="st3" d="M55.659,36.054v23.303c0,2.113-1.713,3.826-3.826,3.826H8.187v0.353c0,2.113,1.713,3.826,3.826,3.826h47.862
		c2.113,0,3.826-1.713,3.826-3.826V36.054H55.659z"/>
	<path class="st3" d="M63.413,36.852H8.093c-0.648,0-1.173-0.525-1.173-1.173v-0.265c0-0.648,0.525-1.173,1.173-1.173h55.32
		c0.648,0,1.173,0.525,1.173,1.173v0.265C64.586,36.327,64.061,36.852,63.413,36.852z"/>
	<g class="st4">
		<path class="st5" d="M36.218,25.816H35.67c-1.342,0-2.43-1.088-2.43-2.43v-1.448c0-1.342,1.088-2.43,2.43-2.43h0.548
			c1.342,0,2.43,1.088,2.43,2.43v1.448C38.648,24.728,37.56,25.816,36.218,25.816z"/>
		<path class="st6" d="M17.494,23.2h36.899c5.14,0,9.307,4.167,9.307,9.307v0c0,0.275-0.223,0.497-0.497,0.497H8.684
			c-0.275,0-0.497-0.223-0.497-0.497v0C8.187,27.367,12.354,23.2,17.494,23.2z"/>
		<path class="st7" d="M55.425,23.256c0.864,0.628,2.789,2.216,3.697,4.967c0.39,1.183,0.485,2.254,0.481,3.066H8.344
			c-0.097,0.558-0.157,1.129-0.157,1.716v0h55.719v0c-0.051-1.141-0.336-4.072-2.441-6.526c-1.085-1.265-2.262-1.945-2.515-2.088
			C57.537,23.592,56.218,23.344,55.425,23.256z"/>
	</g>
</g>
<g id="レイヤー_1のコピー">
	<path class="st5" d="M9.846,38.621v1.73c0,0.719-0.669,1.301-1.494,1.301h-3.73c-1.115,0-2.018-0.787-2.018-1.758
		c0.038-0.754,0.076-1.508,0.114-2.262c0.004-0.082,0.05-0.823,0.656-1.143c0.66-0.348,1.779-0.093,2.384,0.782
		C5.837,37.349,6.275,37.755,7,37.783c0.775,0.03,1.273-0.395,1.351-0.464C8.451,37.32,8.98,37.328,9.846,38.621z"/>
	<path class="st5" d="M61.841,38.621v1.73c0,0.719,0.669,1.301,1.494,1.301h3.73c1.115,0,2.018-0.787,2.018-1.758
		c-0.038-0.754-0.076-1.508-0.114-2.262c-0.004-0.082-0.05-0.823-0.656-1.143c-0.66-0.348-1.779-0.093-2.384,0.782
		c-0.081,0.078-0.519,0.483-1.244,0.511c-0.775,0.03-1.273-0.395-1.351-0.464C63.236,37.32,62.706,37.328,61.841,38.621z"/>
	<path class="st6" d="M59.847,67.362H12.04c-2.128,0-3.853-1.725-3.853-3.853V36.054h55.514v27.454
		C63.701,65.636,61.976,67.362,59.847,67.362z"/>
	<path class="st7" d="M55.659,36.054v23.303c0,2.113-1.713,3.826-3.826,3.826H8.187v0.353c0,2.113,1.713,3.826,3.826,3.826h47.862
		c2.113,0,3.826-1.713,3.826-3.826V36.054H55.659z"/>
	<path class="st7" d="M63.413,36.852H8.093c-0.648,0-1.173-0.525-1.173-1.173v-0.265c0-0.648,0.525-1.173,1.173-1.173h55.32
		c0.648,0,1.173,0.525,1.173,1.173v0.265C64.586,36.327,64.061,36.852,63.413,36.852z"/>
	<g>
		<path class="st5" d="M39.635,13.252L39.108,13.1c-1.29-0.372-2.034-1.718-1.662-3.008l0.401-1.391
			c0.372-1.29,1.718-2.034,3.008-1.662l0.527,0.152c1.29,0.372,2.034,1.718,1.662,3.008l-0.401,1.391
			C42.271,12.879,40.925,13.623,39.635,13.252z"/>
		<path class="st6" d="M22.368,5.554l35.457,10.215c4.939,1.423,7.79,6.581,6.367,11.52v0c-0.076,0.264-0.351,0.416-0.615,0.34
			L11.187,12.536c-0.264-0.076-0.416-0.351-0.34-0.615l0,0C12.27,6.981,17.428,4.131,22.368,5.554z"/>
		<path class="st7" d="M58.8,16.109c0.656,0.842,2.067,2.901,2.178,5.796c0.048,1.245-0.158,2.3-0.386,3.079L11.336,10.793
			c-0.248,0.51-0.464,1.042-0.626,1.605l0,0l53.542,15.425l0,0c0.267-1.11,0.805-4.006-0.539-6.947
			c-0.693-1.516-1.635-2.495-1.839-2.703C60.736,17.016,59.538,16.413,58.8,16.109z"/>
	</g>
</g>
<g id="レイヤー_3" class="st0">
	<rect x="6.133" y="2.18" class="st8" width="48.354" height="64.824"/>
	<g class="st4">
		<path class="st9" d="M62.859,33.217v29.909c0,0.495,1.282,0.896,2.864,0.896c1.582,0,2.864-0.401,2.864-0.896V33.217H62.859z"/>
		<path class="st10" d="M67.471,33.217v28.859c-0.291,0.197-1.057,0.658-2.133,0.665c-1.33,0.009-2.233-0.684-2.479-0.886
			c0,0.423,0,0.847,0,1.27c0,0.495,1.282,0.896,2.864,0.896c1.582,0,2.864-0.401,2.864-0.896V33.217H67.471z"/>
		<path class="st11" d="M68.555,33.217l-1.417-2.196l-1.188-1.84c-0.108-0.167-0.351-0.167-0.459,0l-1.188,1.84l-1.418,2.196H62.9
			c-0.003,0.009-0.015,0.018-0.015,0.028c0,0.293,1.269,0.531,2.835,0.531s2.835-0.238,2.835-0.531c0-0.009-0.012-0.018-0.015-0.028
			H68.555z"/>
		<path class="st12" d="M68.586,33.217l-1.431-2.196l-0.53-0.814c-0.315,0.044-0.648,0.068-0.968,0.06
			c-0.292-0.007-0.562-0.043-0.816-0.088c-0.187,0.286-0.373,0.572-0.56,0.859c-0.473,0.726-0.947,1.453-1.42,2.179
			c-0.001,0.005-0.001,0.01-0.002,0.015c0,0.003,0.001,0.007,0.002,0.012c0.106,0.561,2.449,0.531,2.862,0.531
			c1.244,0,2.824-0.165,2.862-0.531C68.587,33.233,68.586,33.224,68.586,33.217z"/>
	</g>
	<text transform="matrix(1.3911 0 0 1 11.4312 11.978)" class="st13 st14 st15">Recipe</text>
	<line class="st16" x1="10.569" y1="25.697" x2="50.051" y2="25.697"/>
	<line class="st16" x1="10.569" y1="33.626" x2="50.051" y2="33.626"/>
	<line class="st16" x1="10.569" y1="41.555" x2="50.051" y2="41.555"/>
	<line class="st16" x1="10.569" y1="49.485" x2="50.051" y2="49.485"/>
	<line class="st16" x1="10.569" y1="57.414" x2="50.051" y2="57.414"/>
</g>
<g id="レイヤー_3のコピー" class="st0">
	<rect x="6.133" y="2.18" class="st8" width="48.354" height="64.824"/>
	<text transform="matrix(1.3911 0 0 1 11.4312 11.978)" class="st13 st14 st15">Recipe</text>
	<line class="st16" x1="10.569" y1="25.697" x2="50.051" y2="25.697"/>
	<line class="st16" x1="10.569" y1="33.626" x2="50.051" y2="33.626"/>
	<line class="st16" x1="10.569" y1="41.555" x2="50.051" y2="41.555"/>
	<line class="st16" x1="10.569" y1="49.485" x2="50.051" y2="49.485"/>
	<line class="st16" x1="10.569" y1="57.414" x2="50.051" y2="57.414"/>
	<g class="st4">
		<path class="st9" d="M47.859,36.893l17.517,24.242c0.29,0.401,1.564-0.025,2.846-0.951c1.282-0.926,2.086-2.002,1.797-2.403
			L52.502,33.539L47.859,36.893z"/>
		<path class="st10" d="M51.597,34.192L68.5,57.584c-0.121,0.33-0.471,1.153-1.339,1.789c-1.073,0.786-2.21,0.754-2.529,0.734
			c0.248,0.343,0.496,0.686,0.744,1.03c0.29,0.401,1.564-0.025,2.846-0.951c1.282-0.926,2.086-2.002,1.797-2.403L52.502,33.539
			L51.597,34.192z"/>
		<path class="st11" d="M52.476,33.557l-2.435-0.95L48,31.811c-0.185-0.072-0.382,0.071-0.372,0.269l0.115,2.188l0.137,2.61
			l0.012-0.009c0.003,0.009-0.001,0.023,0.004,0.031c0.172,0.238,1.34-0.313,2.609-1.23c1.269-0.917,2.159-1.853,1.987-2.091
			c-0.006-0.008-0.021-0.008-0.028-0.014L52.476,33.557z"/>
		<path class="st12" d="M52.501,33.539l-2.446-0.942l-0.906-0.349c-0.23,0.22-0.486,0.435-0.749,0.615
			c-0.241,0.165-0.481,0.295-0.713,0.406c0.016,0.341,0.033,0.682,0.049,1.024c0.042,0.866,0.083,1.732,0.125,2.598
			c0.003,0.005,0.005,0.009,0.008,0.014c0.002,0.002,0.005,0.005,0.009,0.009c0.414,0.393,2.296-1.003,2.631-1.246
			c1.009-0.729,2.192-1.788,2.009-2.107C52.512,33.552,52.506,33.544,52.501,33.539z"/>
	</g>
</g>
<g id="レイヤー_5" class="st0">
	<g class="st4">
		<path class="st17" d="M32.564,53.922h6.062c1.149,0,2.08,0.931,2.08,2.08v7.763c0,1.291-1.047,2.338-2.338,2.338h-5.546
			c-1.291,0-2.338-1.047-2.338-2.338v-7.763C30.484,54.853,31.415,53.922,32.564,53.922z"/>
		<path class="st18" d="M40.089,55.571c-0.801,0.397-2.415,1.065-4.551,1.049c-2.079-0.015-3.649-0.671-4.444-1.07"/>
		<path class="st18" d="M40.573,57.707c-0.925,0.45-2.691,1.161-5.017,1.187c-2.264,0.025-4.007-0.61-4.939-1.027"/>
		<path class="st18" d="M40.526,60.123c-0.903,0.439-2.644,1.139-4.937,1.156c-2.272,0.017-4.01-0.644-4.918-1.066"/>
		<path class="st18" d="M40.456,62.294c-0.935,0.431-2.637,1.069-4.854,1.103c-2.218,0.034-3.939-0.553-4.887-0.955"/>
		<path class="st18" d="M40.325,64.446c-0.503,0.402-2.161,1.623-4.617,1.672c-2.535,0.05-4.28-1.182-4.782-1.565"/>
	</g>
	<g class="st4">
		<path class="st19" d="M56.356,23.628c0-10.906-9.242-19.747-20.642-19.747s-20.642,8.841-20.642,19.747
			c0,4.757,1.759,9.121,4.688,12.529c0.002,0.003,0.004,0.005,0.006,0.008c0.512,0.718,7.439,10.42,10.907,15.277
			c0.288,0.404,0.754,0.643,1.25,0.643h7.367c0.493,0,0.956-0.236,1.246-0.634l11.13-15.29h-0.001
			C54.595,32.752,56.356,28.387,56.356,23.628z"/>
		<path class="st20" d="M23.596,34.767c-0.795-1.688-4.567-10.238-0.754-18.736C26.904,6.981,36.69,4.401,38.21,4.025
			c-0.819-0.094-1.652-0.144-2.497-0.144c-11.4,0-20.642,8.841-20.642,19.747c0,4.757,1.759,9.121,4.688,12.529
			c0.002,0.003,0.004,0.005,0.006,0.008c0.512,0.718,7.439,10.42,10.907,15.277c0.199,0.279,0.482,0.479,0.802,0.576
			c0.165,0.05,0.296,0.06,0.448,0.067c0.864,0.038,1.207-0.02,1.929-0.019c0.601,0.001,0.719,0.042,0.96-0.063
			c0.193-0.109,0.511-0.322,0.706-0.693C37.001,48.492,27.74,43.562,23.596,34.767z"/>
		<path class="st21" d="M43.786,40.957c0-4.265-3.614-7.722-8.072-7.722s-8.072,3.457-8.072,7.722c0,1.86,0.688,3.567,1.833,4.9
			c0.001,0.001,0.002,0.002,0.002,0.003c0.2,0.281,2.909,4.075,4.265,5.974c0.113,0.158,0.295,0.251,0.489,0.251h2.881
			c0.193,0,0.374-0.092,0.487-0.248l4.352-5.979h0C43.097,44.525,43.786,42.818,43.786,40.957z"/>
		<path class="st22" d="M40.148,45.972c0-2.343-1.985-4.242-4.434-4.242c-2.449,0-4.434,1.899-4.434,4.242
			c0,1.022,0.378,1.959,1.007,2.692c0.001,0.001,0.001,0.001,0.001,0.002c0.11,0.154,1.598,2.238,2.343,3.282
			c0.062,0.087,0.162,0.138,0.269,0.138h1.583c0.106,0,0.205-0.051,0.268-0.136l2.391-3.285h0
			C39.77,47.932,40.148,46.994,40.148,45.972z"/>
		<path class="st23" d="M35.713,6.038c1.37,0.128,8.014,0.895,12.948,6.697c5.487,6.451,4.553,14.062,4.388,15.248"/>
	</g>
</g>
<g id="レイヤー_5のコピー" class="st0">
	<g class="st4">
		<path class="st17" d="M32.564,53.922h6.062c1.149,0,2.08,0.931,2.08,2.08v7.763c0,1.291-1.047,2.338-2.338,2.338h-5.546
			c-1.291,0-2.338-1.047-2.338-2.338v-7.763C30.484,54.853,31.415,53.922,32.564,53.922z"/>
		<path class="st18" d="M40.089,55.571c-0.801,0.397-2.415,1.065-4.551,1.049c-2.079-0.015-3.649-0.671-4.444-1.07"/>
		<path class="st18" d="M40.573,57.707c-0.925,0.45-2.691,1.161-5.017,1.187c-2.264,0.025-4.007-0.61-4.939-1.027"/>
		<path class="st18" d="M40.526,60.123c-0.903,0.439-2.644,1.139-4.937,1.156c-2.272,0.017-4.01-0.644-4.918-1.066"/>
		<path class="st18" d="M40.456,62.294c-0.935,0.431-2.637,1.069-4.854,1.103c-2.218,0.034-3.939-0.553-4.887-0.955"/>
		<path class="st18" d="M40.325,64.446c-0.503,0.402-2.161,1.623-4.617,1.672c-2.535,0.05-4.28-1.182-4.782-1.565"/>
	</g>
	<g class="st4">
		<path class="st19" d="M56.356,23.628c0-10.906-9.242-19.747-20.642-19.747s-20.642,8.841-20.642,19.747
			c0,4.757,1.759,9.121,4.688,12.529c0.002,0.003,0.004,0.005,0.006,0.008c0.512,0.718,7.439,10.42,10.907,15.277
			c0.288,0.404,0.754,0.643,1.25,0.643h7.367c0.493,0,0.956-0.236,1.246-0.634l11.13-15.29h-0.001
			C54.595,32.752,56.356,28.387,56.356,23.628z"/>
		<path class="st20" d="M23.596,34.767c-0.795-1.688-4.567-10.238-0.754-18.736C26.904,6.981,36.69,4.401,38.21,4.025
			c-0.819-0.094-1.652-0.144-2.497-0.144c-11.4,0-20.642,8.841-20.642,19.747c0,4.757,1.759,9.121,4.688,12.529
			c0.002,0.003,0.004,0.005,0.006,0.008c0.512,0.718,7.439,10.42,10.907,15.277c0.199,0.279,0.482,0.479,0.802,0.576
			c0.165,0.05,0.296,0.06,0.448,0.067c0.864,0.038,1.207-0.02,1.929-0.019c0.601,0.001,0.719,0.042,0.96-0.063
			c0.193-0.109,0.511-0.322,0.706-0.693C37.001,48.492,27.74,43.562,23.596,34.767z"/>
		<path class="st21" d="M43.786,40.957c0-4.265-3.614-7.722-8.072-7.722s-8.072,3.457-8.072,7.722c0,1.86,0.688,3.567,1.833,4.9
			c0.001,0.001,0.002,0.002,0.002,0.003c0.2,0.281,2.909,4.075,4.265,5.974c0.113,0.158,0.295,0.251,0.489,0.251h2.881
			c0.193,0,0.374-0.092,0.487-0.248l4.352-5.979h0C43.097,44.525,43.786,42.818,43.786,40.957z"/>
		<path class="st22" d="M40.148,45.972c0-2.343-1.985-4.242-4.434-4.242c-2.449,0-4.434,1.899-4.434,4.242
			c0,1.022,0.378,1.959,1.007,2.692c0.001,0.001,0.001,0.001,0.001,0.002c0.11,0.154,1.598,2.238,2.343,3.282
			c0.062,0.087,0.162,0.138,0.269,0.138h1.583c0.106,0,0.205-0.051,0.268-0.136l2.391-3.285h0
			C39.77,47.932,40.148,46.994,40.148,45.972z"/>
		<path class="st23" d="M35.713,6.038c1.37,0.128,8.014,0.895,12.948,6.697c5.487,6.451,4.553,14.062,4.388,15.248"/>
	</g>
	<path class="st24" d="M5.236,5.342C6.369,6.197,7.53,7.105,8.714,8.069c1.341,1.092,2.619,2.179,3.832,3.252"/>
	<path class="st24" d="M1.928,14.485c1.164,0.334,2.368,0.703,3.609,1.108c1.406,0.459,2.76,0.935,4.061,1.418"/>
	<path class="st24" d="M1.75,24.066c1.198-0.179,2.446-0.344,3.743-0.491c1.469-0.166,2.899-0.296,4.283-0.397"/>
	<path class="st24" d="M71.295,24.825c-1.402-0.219-2.854-0.472-4.353-0.764c-1.698-0.33-3.337-0.687-4.912-1.061"/>
	<path class="st24" d="M69.901,15.203c-1.184,0.254-2.419,0.497-3.705,0.725c-1.456,0.258-2.875,0.477-4.249,0.665"/>
	<path class="st24" d="M65.539,6.67c-0.972,0.723-1.994,1.457-3.069,2.198c-1.218,0.839-2.417,1.628-3.589,2.369"/>
</g>
</svg>
